<svg xmlns="http://www.w3.org/2000/svg" xmlns:xlink="http://www.w3.org/1999/xlink">
    <defs>
        <symbol id="icon-dashboard" viewBox="0 0 24 24" fill="none" stroke="currentColor" stroke-width="2" stroke-linecap="round" stroke-linejoin="round">
            <rect width="7" height="9" x="3" y="3" rx="1"/>
            <rect width="7" height="5" x="14" y="3" rx="1"/>
            <rect width="7" height="9" x="14" y="12" rx="1"/>
            <rect width="7" height="5" x="3" y="16" rx="1"/>
        </symbol>
        <symbol id="icon-products" viewBox="0 0 24 24" fill="none" stroke="currentColor" stroke-width="2" stroke-linecap="round" stroke-linejoin="round">
            <path d="M6 2 3 6v14a2 2 0 0 0 2 2h14a2 2 0 0 0 2-2V6l-3-4Z"/>
            <path d="M3 6h18"/>
            <path d="M16 10a4 4 0 0 1-8 0"/>
        </symbol>
        <symbol id="icon-orders" viewBox="0 0 24 24" fill="none" stroke="currentColor" stroke-width="2" stroke-linecap="round" stroke-linejoin="round">
            <circle cx="8" cy="21" r="1"/>
            <circle cx="19" cy="21" r="1"/>
            <path d="M2.05 2.05h2l2.66 12.42a2 2 0 0 0 2 1.58h9.78a2 2 0 0 0 1.95-1.57l1.65-7.43H5.12"/>
        </symbol>
        <symbol id="icon-users" viewBox="0 0 24 24" fill="none" stroke="currentColor" stroke-width="2" stroke-linecap="round" stroke-linejoin="round">
            <path d="M16 21v-2a4 4 0 0 0-4-4H6a4 4 0 0 0-4 4v2"/>
            <circle cx="9" cy="7" r="4"/>
            <path d="M22 21v-2a4 4 0 0 0-3-3.87"/>
            <path d="M16 3.13a4 4 0 0 1 0 7.75"/>
        </symbol>
        <symbol id="icon-blog" viewBox="0 0 24 24" fill="none" stroke="currentColor" stroke-width="2" stroke-linecap="round" stroke-linejoin="round">
            <path d="M4 22h16a2 2 0 0 0 2-2V4a2 2 0 0 0-2-2H8a2 2 0 0 0-2 2v16a2 2 0 0 1-2 2Zm0 0a2 2 0 0 1-2-2v-9c0-1.1.9-2 2-2h2"/>
            <path d="M18 14h-8"/>
            <path d="M15 18h-5"/>
            <path d="M10 6h8v4h-8V6Z"/>
        </symbol>
        <symbol id="icon-search" viewBox="0 0 24 24" fill="none" stroke="currentColor" stroke-width="2" stroke-linecap="round" stroke-linejoin="round">
            <circle cx="11" cy="11" r="8"/>
            <path d="m21 21-4.3-4.3"/>
        </symbol>
        <symbol id="icon-notification" viewBox="0 0 24 24" fill="none" stroke="currentColor" stroke-width="2" stroke-linecap="round" stroke-linejoin="round">
            <path d="M12.22 2h-.44a2 2 0 0 0-2 2v.18a2 2 0 0 1-1 1.73l-.43.25a2 2 0 0 1-2 0l-.15-.08a2 2 0 0 0-2.73.73l-.22.38a2 2 0 0 0 .73 2.73l.15.1a2 2 0 0 1 1 1.72v.51a2 2 0 0 1-1 1.74l-.15.09a2 2 0 0 0-.73 2.73l.22.38a2 2 0 0 0 2.73.73l.15-.08a2 2 0 0 1 2 0l.43.25a2 2 0 0 1 1 1.73V20a2 2 0 0 0 2 2h.44a2 2 0 0 0 2-2v-.18a2 2 0 0 1 1-1.73l.43-.25a2 2 0 0 1 2 0l.15.08a2 2 0 0 0 2.73-.73l.22-.39a2 2 0 0 0-.73-2.73l-.15-.08a2 2 0 0 1-1-1.74v-.5a2 2 0 0 1 1-1.74l.15-.09a2 2 0 0 0 .73-2.73l-.22-.38a2 2 0 0 0-2.73-.73l-.15.08a2 2 0 0 1-2 0l-.43-.25a2 2 0 0 1-1-1.73V4a2 2 0 0 0-2-2z"/>
            <circle cx="12" cy="12" r="3"/>
        </symbol>
        <symbol id="icon-edit" viewBox="0 0 24 24" fill="none" stroke="currentColor" stroke-width="2" stroke-linecap="round" stroke-linejoin="round">
            <path d="M17 3a2.85 2.85 0 1 1 4 4L7.5 20.5 2 22l1.5-5.5Z"/>
            <path d="m15 5 4 4"/>
        </symbol>
        <symbol id="icon-delete" viewBox="0 0 24 24" fill="none" stroke="currentColor" stroke-width="2" stroke-linecap="round" stroke-linejoin="round">
            <path d="M3 6h18"/>
            <path d="M19 6v14c0 1-1 2-2 2H7c-1 0-2-1-2-2V6"/>
            <path d="M8 6V4c0-1 1-2 2-2h4c1 0 2 1 2 2v2"/>
            <line x1="10" x2="10" y1="11" y2="17"/>
            <line x1="14" x2="14" y1="11" y2="17"/>
        </symbol>
        <symbol id="icon-view" viewBox="0 0 24 24" fill="none" stroke="currentColor" stroke-width="2" stroke-linecap="round" stroke-linejoin="round">
            <path d="M1 12s4-8 11-8 11 8 11 8-4 8-11 8-11-8-11-8z"/>
            <circle cx="12" cy="12" r="3"/>
        </symbol>
        <symbol id="icon-revenue" viewBox="0 0 24 24" fill="none" stroke="currentColor" stroke-width="2" stroke-linecap="round" stroke-linejoin="round">
            <path d="M3 3v18h18"/>
            <path d="m19 9-5 5-4-4-3 3"/>
        </symbol>
        <symbol id="icon-plus" viewBox="0 0 24 24" fill="none" stroke="currentColor" stroke-width="2" stroke-linecap="round" stroke-linejoin="round">
            <line x1="12" x2="12" y1="5" y2="19"/>
            <line x1="5" x2="19" y1="12" y2="12"/>
        </symbol>
        <symbol id="icon-chevron-down" viewBox="0 0 24 24" fill="none" stroke="currentColor" stroke-width="2" stroke-linecap="round" stroke-linejoin="round">
            <path d="m6 9 6 6 6-6"/>
        </symbol>
        <symbol id="icon-chevron-left" viewBox="0 0 24 24" fill="none" stroke="currentColor" stroke-width="2" stroke-linecap="round" stroke-linejoin="round">
            <path d="m15 18-6-6 6-6"/>
        </symbol>
        <symbol id="icon-chevron-right" viewBox="0 0 24 24" fill="none" stroke="currentColor" stroke-width="2" stroke-linecap="round" stroke-linejoin="round">
            <path d="m9 18 6-6-6-6"/>
        </symbol>
        <symbol id="icon-settings" viewBox="0 0 24 24" fill="none" stroke="currentColor" stroke-width="2" stroke-linecap="round" stroke-linejoin="round">
            <path d="M12.22 2h-.44a2 2 0 0 0-2 2v.18a2 2 0 0 1-1 1.73l-.43.25a2 2 0 0 1-2 0l-.15-.08a2 2 0 0 0-2.73.73l-.22.38a2 2 0 0 0 .73 2.73l.15.1a2 2 0 0 1 1 1.72v.51a2 2 0 0 1-1 1.74l-.15.09a2 2 0 0 0-.73 2.73l.22.38a2 2 0 0 0 2.73.73l.15-.08a2 2 0 0 1 2 0l.43.25a2 2 0 0 1 1 1.73V20a2 2 0 0 0 2 2h.44a2 2 0 0 0 2-2v-.18a2 2 0 0 1 1-1.73l.43-.25a2 2 0 0 1 2 0l.15.08a2 2 0 0 0 2.73-.73l.22-.39a2 2 0 0 0-.73-2.73l-.15-.08a2 2 0 0 1-1-1.74v-.5a2 2 0 0 1 1-1.74l.15-.09a2 2 0 0 0 .73-2.73l-.22-.38a2 2 0 0 0-2.73-.73l-.15.08a2 2 0 0 1-2 0l-.43-.25a2 2 0 0 1-1-1.73V4a2 2 0 0 0-2-2z"/>
            <circle cx="12" cy="12" r="3"/>
        </symbol>
        <symbol id="icon-profile" viewBox="0 0 24 24" fill="none" stroke="currentColor" stroke-width="2" stroke-linecap="round" stroke-linejoin="round">
            <path d="M16 7a4 4 0 1 1-8 0 4 4 0 0 1 8 0z"/>
            <path d="M12 14a7 7 0 0 0-7 7h14a7 7 0 0 0-7-7z"/>
        </symbol>
        <symbol id="icon-logout" viewBox="0 0 24 24" fill="none" stroke="currentColor" stroke-width="2" stroke-linecap="round" stroke-linejoin="round">
            <path d="M9 21H5a2 2 0 0 1-2-2V5a2 2 0 0 1 2-2h4"/>
            <polyline points="16 17 21 12 16 7"/>
            <line x1="21" y1="12" x2="9" y2="12"/>
        </symbol>
        <symbol id="icon-inventory" viewBox="0 0 24 24" fill="none" stroke="currentColor" stroke-width="2" stroke-linecap="round" stroke-linejoin="round">
            <path d="M2 3h6a4 4 0 0 1 4 4v14a3 3 0 0 0-3-3H2z"/>
            <path d="M22 3h-6a4 4 0 0 0-4 4v14a3 3 0 0 1 3-3h7z"/>
        </symbol>
        <symbol id="icon-customer" viewBox="0 0 24 24" fill="none" stroke="currentColor" stroke-width="2" stroke-linecap="round" stroke-linejoin="round">
            <path d="M20 21v-2a4 4 0 0 0-4-4H8a4 4 0 0 0-4 4v2"/>
            <circle cx="12" cy="7" r="4"/>
        </symbol>
    </defs>
</svg>
